<svg width="15" height="14" viewBox="0 0 15 14" fill="none" xmlns="http://www.w3.org/2000/svg">
<g id="shopping-cart-02">
<path id="Vector" d="M5.25 9.0625L10.1551 8.65373C11.6898 8.52588 12.0344 8.19063 12.2045 6.66001L12.5625 3.4375" stroke="#F3F4F6" stroke-width="0.84375" stroke-linecap="round"/>
<path id="Vector_2" d="M4.125 3.4375H13.125" stroke="#F3F4F6" stroke-width="0.84375" stroke-linecap="round"/>
<path id="Vector_3" d="M4.125 12.4375C4.74632 12.4375 5.25 11.9338 5.25 11.3125C5.25 10.6912 4.74632 10.1875 4.125 10.1875C3.50368 10.1875 3 10.6912 3 11.3125C3 11.9338 3.50368 12.4375 4.125 12.4375Z" stroke="#F3F4F6" stroke-width="0.84375"/>
<path id="Vector_4" d="M10.3125 12.4375C10.9338 12.4375 11.4375 11.9338 11.4375 11.3125C11.4375 10.6912 10.9338 10.1875 10.3125 10.1875C9.69118 10.1875 9.1875 10.6912 9.1875 11.3125C9.1875 11.9338 9.69118 12.4375 10.3125 12.4375Z" stroke="#F3F4F6" stroke-width="0.84375"/>
<path id="Vector_5" d="M5.25 11.3125H9.1875" stroke="#F3F4F6" stroke-width="0.84375" stroke-linecap="round"/>
<path id="Vector_6" d="M1.875 1.1875H2.41837C2.94976 1.1875 3.41295 1.53883 3.54183 2.03965L5.21542 8.54303C5.29999 8.8717 5.22761 9.21983 5.01838 9.4909L4.48057 10.1875" stroke="#F3F4F6" stroke-width="0.84375" stroke-linecap="round"/>
</g>
</svg>
