<svg width="29" height="29" viewBox="0 0 29 29" fill="none" xmlns="http://www.w3.org/2000/svg">
<g id="tabler:hexagon-letter-f-filled">
<path id="Vector" d="M16.7648 2.42463L24.675 7.08869L24.7875 7.16252L24.8965 7.25393L25.0207 7.34065C25.4602 7.66989 25.8225 8.09108 26.0824 8.57483C26.3423 9.05858 26.4935 9.59322 26.5254 10.1414L26.5312 10.3805V18.9164C26.5312 20.2934 25.7777 21.5602 24.6293 22.1895L16.6559 27.2309C15.5074 27.8614 14.1176 27.8614 12.9059 27.1934L5.06016 22.2281C4.46602 21.9026 3.97013 21.4236 3.62425 20.8411C3.27836 20.2586 3.09516 19.5939 3.09375 18.9164V10.3793C3.09375 9.08323 3.76172 7.88557 4.82344 7.2094L12.968 2.40705C14.1398 1.76018 15.5625 1.76018 16.7648 2.42463ZM17.1562 8.95315H12.4688C12.1579 8.95315 11.8599 9.07661 11.6401 9.29638C11.4203 9.51615 11.2969 9.81422 11.2969 10.125V19.5C11.2969 19.8108 11.4203 20.1089 11.6401 20.3287C11.8599 20.5484 12.1579 20.6719 12.4688 20.6719L12.6059 20.6637C12.8909 20.6301 13.1537 20.4931 13.3445 20.2786C13.5352 20.0641 13.6406 19.7871 13.6406 19.5V15.9844H15.9844C16.2714 15.9844 16.5484 15.879 16.7629 15.6882C16.9774 15.4975 17.1145 15.2347 17.148 14.9496L17.1562 14.8125C17.1562 14.5017 17.0328 14.2037 16.813 13.9839C16.5932 13.7641 16.2952 13.6406 15.9844 13.6406H13.6406V11.2969H17.1562C17.4671 11.2969 17.7651 11.1734 17.9849 10.9537C18.2047 10.7339 18.3281 10.4358 18.3281 10.125C18.3281 9.81422 18.2047 9.51615 17.9849 9.29638C17.7651 9.07661 17.4671 8.95315 17.1562 8.95315Z" fill="#EAB308"/>
</g>
</svg>
